<?xml version="1.0" encoding="UTF-8" standalone="no"?>
<!-- Created with Inkscape (http://www.inkscape.org/) -->

<svg
   xmlns:dc="http://purl.org/dc/elements/1.1/"
   xmlns:cc="http://creativecommons.org/ns#"
   xmlns:rdf="http://www.w3.org/1999/02/22-rdf-syntax-ns#"
   xmlns:svg="http://www.w3.org/2000/svg"
   xmlns="http://www.w3.org/2000/svg"
   xmlns:sodipodi="http://sodipodi.sourceforge.net/DTD/sodipodi-0.dtd"
   xmlns:inkscape="http://www.inkscape.org/namespaces/inkscape"
   width="100mm"
   height="67mm"
   viewBox="0 0 100 67"
   version="1.1"
   id="svg8"
   inkscape:version="0.92.3 (2405546, 2018-03-11)"
   sodipodi:docname="coordinate_system_IBC.svg"
   inkscape:export-filename="/home/cel/dev/git/mscsim-docs/trunk/latex/images/svg/coordinate_system_IBC.png"
   inkscape:export-xdpi="300"
   inkscape:export-ydpi="300">
  <defs
     id="defs2">
    <marker
       inkscape:isstock="true"
       style="overflow:visible"
       id="marker1113"
       refX="0"
       refY="0"
       orient="auto"
       inkscape:stockid="Arrow1Lend">
      <path
         transform="matrix(-0.8,0,0,-0.8,-10,0)"
         style="fill:#000000;fill-opacity:1;fill-rule:evenodd;stroke:#000000;stroke-width:1.00000003pt;stroke-opacity:1"
         d="M 0,0 5,-5 -12.5,0 5,5 Z"
         id="path1111"
         inkscape:connector-curvature="0" />
    </marker>
    <marker
       inkscape:stockid="Arrow1Lend"
       orient="auto"
       refY="0"
       refX="0"
       id="marker943"
       style="overflow:visible"
       inkscape:isstock="true"
       inkscape:collect="always">
      <path
         id="path941"
         d="M 0,0 5,-5 -12.5,0 5,5 Z"
         style="fill:#000000;fill-opacity:1;fill-rule:evenodd;stroke:#000000;stroke-width:1.00000003pt;stroke-opacity:1"
         transform="matrix(-0.8,0,0,-0.8,-10,0)"
         inkscape:connector-curvature="0" />
    </marker>
    <marker
       inkscape:isstock="true"
       style="overflow:visible"
       id="marker901"
       refX="0"
       refY="0"
       orient="auto"
       inkscape:stockid="Arrow1Lend"
       inkscape:collect="always">
      <path
         transform="matrix(-0.8,0,0,-0.8,-10,0)"
         style="fill:#000000;fill-opacity:1;fill-rule:evenodd;stroke:#000000;stroke-width:1.00000003pt;stroke-opacity:1"
         d="M 0,0 5,-5 -12.5,0 5,5 Z"
         id="path899"
         inkscape:connector-curvature="0" />
    </marker>
    <marker
       inkscape:isstock="true"
       style="overflow:visible"
       id="marker1680"
       refX="0"
       refY="0"
       orient="auto"
       inkscape:stockid="Arrow1Lstart">
      <path
         transform="matrix(0.8,0,0,0.8,10,0)"
         style="fill:#000000;fill-opacity:1;fill-rule:evenodd;stroke:#000000;stroke-width:1.00000003pt;stroke-opacity:1"
         d="M 0,0 5,-5 -12.5,0 5,5 Z"
         id="path1678"
         inkscape:connector-curvature="0" />
    </marker>
  </defs>
  <sodipodi:namedview
     id="base"
     pagecolor="#ffffff"
     bordercolor="#666666"
     borderopacity="1.0"
     inkscape:pageopacity="0.0"
     inkscape:pageshadow="2"
     inkscape:zoom="0.98994949"
     inkscape:cx="67.870843"
     inkscape:cy="74.518704"
     inkscape:document-units="mm"
     inkscape:current-layer="layer1"
     showgrid="false"
     inkscape:window-width="1920"
     inkscape:window-height="1010"
     inkscape:window-x="0"
     inkscape:window-y="0"
     inkscape:window-maximized="1"
     inkscape:snap-intersection-paths="false"
     inkscape:object-paths="true"
     inkscape:snap-smooth-nodes="false"
     inkscape:snap-midpoints="false"
     inkscape:snap-center="true" />
  <metadata
     id="metadata5">
    <rdf:RDF>
      <cc:Work
         rdf:about="">
        <dc:format>image/svg+xml</dc:format>
        <dc:type
           rdf:resource="http://purl.org/dc/dcmitype/StillImage" />
        <dc:title />
      </cc:Work>
    </rdf:RDF>
  </metadata>
  <g
     inkscape:label="Layer 1"
     inkscape:groupmode="layer"
     id="layer1"
     transform="translate(0,-230)">
    <rect
       style="opacity:1;fill:#ffffff;fill-opacity:1;stroke:none;stroke-width:0.24999999;stroke-linejoin:round;stroke-miterlimit:4;stroke-dasharray:none;stroke-dashoffset:0;stroke-opacity:1"
       id="rect1264"
       width="100"
       height="67"
       x="0"
       y="230" />
    <g
       id="g950"
       transform="translate(2.9733754)">
      <g
         style="stroke-width:1.07212889"
         transform="matrix(0.932822,0,0,0.93262531,0.11781669,19.981916)"
         id="g928">
        <path
           style="fill:none;stroke:#000000;stroke-width:0.26803222;stroke-linecap:butt;stroke-linejoin:miter;stroke-miterlimit:4;stroke-dasharray:3.21638685, 3.21638685;stroke-dashoffset:0;stroke-opacity:1"
           d="M 7.4524817,288.52134 85.905221,233.02967"
           id="path1073"
           inkscape:connector-curvature="0"
           sodipodi:nodetypes="cc" />
        <path
           id="path1200-3"
           style="fill:none;stroke:#000005;stroke-width:0.40740898;stroke-linecap:butt;stroke-linejoin:miter;stroke-miterlimit:4;stroke-dasharray:none;stroke-opacity:1"
           d="m 79.781224,229.88169 c 0,0 0.21098,-0.0732 0.326937,-0.0802 0.115957,-0.007 0.184552,0.008 0.357783,0.0431 0.173231,0.0356 0.460043,0.11538 0.672382,0.1973 0.212338,0.0819 0.367876,0.17504 0.598358,0.2898 0.230483,0.11474 0.425383,0.20087 0.783413,0.40077 0.358029,0.1999 0.968501,0.57032 1.350932,0.82004 0.38243,0.24972 0.544725,0.37147 0.949972,0.6659 0.40524,0.29444 1.034655,0.7712 1.474302,1.10984 0.439653,0.33863 0.682394,0.52556 1.165871,0.91869 0.483485,0.39313 1.197917,1.0007 1.727216,1.44895 0.529306,0.44826 0.943534,0.7977 1.449627,1.23932 0.5061,0.44163 1.00515,0.88822 1.58534,1.41195 0.5802,0.52374 1.17239,1.05455 1.89377,1.73258 0.72139,0.67803 2.42673,2.34314 2.42673,2.34314 m -68.582165,48.51488 68.582165,-48.51478 m -85.344797,35.9735 68.582164,-48.51478 m -66.803749,51.84224 c 0,0 -0.285936,-0.19279 -0.415148,-0.30625 -0.160606,-0.14102 -0.302902,-0.30203 -0.444141,-0.46242 -0.171004,-0.19421 -0.335149,-0.39497 -0.487322,-0.60425 -0.141499,-0.19459 -0.279521,-0.39307 -0.394793,-0.60424 -0.0917,-0.16798 -0.189209,-0.33814 -0.234408,-0.52409 -0.03452,-0.14202 -0.03984,-0.29241 -0.02468,-0.43777 0.0082,-0.0783 0.02221,-0.15996 0.06168,-0.22813 0.03787,-0.0654 0.09451,-0.12322 0.160384,-0.16031 0.09777,-0.0551 0.214931,-0.0734 0.326938,-0.0802 0.119908,-0.007 0.240117,0.019 0.357781,0.0431 0.228797,0.047 0.454465,0.11322 0.67238,0.1973 0.206764,0.0798 0.399974,0.19102 0.598359,0.28979 0.262582,0.13074 0.527308,0.25779 0.783415,0.40078 0.459955,0.2568 0.909864,0.53203 1.350931,0.82004 0.323793,0.21143 0.637124,0.4386 0.949971,0.6659 0.497638,0.36157 0.986988,0.73449 1.474303,1.10984 0.391985,0.30192 0.781986,0.60655 1.165872,0.91869 0.583073,0.47412 1.153739,0.96329 1.727217,1.44896 0.485133,0.41084 0.970634,0.82133 1.449629,1.23931 0.533192,0.46528 1.060051,0.93778 1.585339,1.41196 0.635103,0.57329 1.270342,1.14661 1.893771,1.73257 0.819346,0.7701 2.426726,2.34314 2.426726,2.34314 0,0 -1.833041,-0.90576 -2.747495,-1.36279 -0.813436,-0.40654 -1.632049,-0.80316 -2.43661,-1.22698 -0.757973,-0.39928 -1.508911,-0.81223 -2.251552,-1.23931 -0.713093,-0.4101 -1.412744,-0.84316 -2.115842,-1.27015 -0.422847,-0.2568 -0.851124,-0.50522 -1.264569,-0.77688 -0.119669,-0.0786 -0.351658,-0.24669 -0.351658,-0.24669 m -2.146077,-4.27113 -8.5514093,6.04193 m 2.3636111,1.23052 a 2.3633984,1.2298614 54.978034 0 1 0.3484189,2.64088 2.3633984,1.2298614 54.978034 0 1 -2.3636139,-1.23049 2.3633984,1.2298614 54.978034 0 1 -0.3484189,-2.64088 2.3633984,1.2298614 54.978034 0 1 2.3636139,1.23049 z m 8.8998292,-3.40108 -8.5514093,6.04194 m 5.8393763,-9.91331 c 0.556481,-0.38947 1.614705,0.16143 2.363612,1.23048 0.748906,1.06905 0.904899,2.25142 0.348418,2.64089"
           inkscape:connector-curvature="0" />
        <path
           style="fill:none;stroke:#000000;stroke-width:0.26803222;stroke-linecap:butt;stroke-linejoin:miter;stroke-miterlimit:4;stroke-dasharray:none;stroke-opacity:1;marker-end:url(#marker901)"
           d="m 15.999162,282.47606 19.937694,14.10292"
           id="path891"
           inkscape:connector-curvature="0" />
        <path
           style="fill:none;stroke:#000000;stroke-width:0.26803222;stroke-linecap:butt;stroke-linejoin:miter;stroke-miterlimit:4;stroke-dasharray:none;stroke-opacity:1;marker-end:url(#marker943)"
           d="M 15.999162,282.47606 V 258.64372"
           id="path933"
           inkscape:connector-curvature="0" />
        <path
           style="fill:none;stroke:#000000;stroke-width:0.26803222;stroke-linecap:butt;stroke-linejoin:miter;stroke-miterlimit:4;stroke-dasharray:none;stroke-opacity:1"
           d="m 7.4524817,288.52134 -5.698683,4.03122"
           id="path1002"
           inkscape:connector-curvature="0" />
        <path
           style="fill:none;stroke:#000000;stroke-width:0.26803222;stroke-linecap:butt;stroke-linejoin:miter;stroke-miterlimit:4;stroke-dasharray:none;stroke-opacity:1;marker-end:url(#marker1113)"
           d="m 85.905219,233.02967 10.755847,-7.60864"
           id="path1103"
           inkscape:connector-curvature="0" />
      </g>
      <text
         xml:space="preserve"
         style="font-style:normal;font-weight:normal;font-size:5.64444447px;line-height:1;font-family:sans-serif;letter-spacing:0px;word-spacing:0px;fill:#000000;fill-opacity:1;stroke:none;stroke-width:0.26458332"
         x="34.720707"
         y="296.85922"
         id="text1785-8"><tspan
           sodipodi:role="line"
           id="tspan1783-9"
           x="34.720707"
           y="296.85922"
           style="font-style:italic;font-variant:normal;font-weight:normal;font-stretch:normal;font-size:4.23333311px;font-family:serif;-inkscape-font-specification:'serif Italic';stroke-width:0.26458332">x<tspan
   style="font-style:italic;font-variant:normal;font-weight:normal;font-stretch:normal;font-size:2.82222223px;font-family:serif;-inkscape-font-specification:'serif Italic';baseline-shift:sub;stroke-width:0.26458332"
   id="tspan1787-7" /></tspan></text>
      <text
         xml:space="preserve"
         style="font-style:normal;font-weight:normal;font-size:5.64444447px;line-height:1;font-family:sans-serif;letter-spacing:0px;word-spacing:0px;fill:#000000;fill-opacity:1;stroke:none;stroke-width:0.26458332"
         x="89.936653"
         y="234.0027"
         id="text1785-8-3"><tspan
           sodipodi:role="line"
           id="tspan1783-9-5"
           x="89.936653"
           y="234.0027"
           style="font-style:italic;font-variant:normal;font-weight:normal;font-stretch:normal;font-size:4.23333311px;font-family:serif;-inkscape-font-specification:'serif Italic';stroke-width:0.26458332">y</tspan></text>
      <text
         xml:space="preserve"
         style="font-style:normal;font-weight:normal;font-size:5.64444447px;line-height:1;font-family:sans-serif;letter-spacing:0px;word-spacing:0px;fill:#000000;fill-opacity:1;stroke:none;stroke-width:0.26458332"
         x="10.989985"
         y="263.01907"
         id="text1785-8-2"><tspan
           sodipodi:role="line"
           id="tspan1783-9-9"
           x="10.989985"
           y="263.01907"
           style="font-style:italic;font-variant:normal;font-weight:normal;font-stretch:normal;font-size:4.23333311px;font-family:serif;-inkscape-font-specification:'serif Italic';stroke-width:0.26458332">z</tspan></text>
    </g>
  </g>
</svg>
